<svg id="fire-escape" enable-background="new 0 0 300 300" height="512" viewBox="0 0 300 300" width="512" xmlns="http://www.w3.org/2000/svg"><g><circle cx="157.359" cy="158" fill="#edebdc" r="92"/><g><path d="m49.359 258v-116h44v24h36v24h40v24h40v23.879h36v20.121z" fill="#f96e43"/><path d="m245.359 262h-196c-2.209 0-4-1.791-4-4v-116c0-2.209 1.791-4 4-4h44c2.209 0 4 1.791 4 4v20h32c2.209 0 4 1.791 4 4v20h36c2.209 0 4 1.791 4 4v20h36c2.209 0 4 1.791 4 4v19.879h32c2.209 0 4 1.791 4 4v20.121c0 2.209-1.791 4-4 4zm-192-8h188v-12.121h-32c-2.209 0-4-1.791-4-4v-19.879h-36c-2.209 0-4-1.791-4-4v-20h-36c-2.209 0-4-1.791-4-4v-20h-32c-2.209 0-4-1.791-4-4v-20h-36z" fill="#4c241d"/></g><g><path d="m133.187 152.762 10.008 4.289 12.776-5.475c4.71-2.019 8.864-5.144 12.109-9.11l20.704-25.305h-11.397l-9.084 9.084c-2.064 2.064-5.411 2.064-7.476 0-1.921-1.921-2.073-4.987-.351-7.089l5.889-7.185c5.173-6.312 12.903-9.971 21.064-9.971h7.569c5.202 0 10.252 1.754 14.334 4.979l7.705 6.087c5.55 4.385 8.788 11.069 8.788 18.143v3.047h11.397c3.147 0 5.699 2.551 5.699 5.699 0 3.147-2.551 5.699-5.699 5.699h-11.156c-6.84 0-12.802-4.655-14.461-11.291l-.027-.106-11.758 15.677c-3.368 4.491-4.474 10.285-2.997 15.701l4.181 15.33c1.299 4.763.684 9.845-1.714 14.16l-10.507 18.913c-5.169-6.892-5.65-16.227-1.218-23.614l1.218-2.03-11.397-31.342-26.501 12.231c-6.508 3.004-14.131 2.253-19.928-1.963l-21.954-15.967 3.645-.729c6.905-1.382 14.066-.636 20.539 2.138z" fill="#fff"/><path d="m188.783 218.037c-1.254 0-2.441-.588-3.199-1.6-6.174-8.232-6.742-19.25-1.447-28.072l.236-.395-9.26-25.465-22.553 10.408c-7.812 3.609-16.994 2.705-23.957-2.361l-21.953-15.967c-1.283-.934-1.895-2.539-1.555-4.09.342-1.553 1.566-2.756 3.125-3.066l3.645-.729c7.729-1.547 15.65-.725 22.898 2.385l8.432 3.613 11.199-4.799c4.1-1.758 7.762-4.514 10.59-7.967l15.359-18.773h-1.301l-7.912 7.912c-3.621 3.621-9.512 3.621-13.133 0-3.391-3.393-3.654-8.746-.615-12.451l5.889-7.186c5.959-7.266 14.764-11.434 24.158-11.434h7.568c6.078 0 12.049 2.074 16.814 5.84l7.705 6.088c6.299 4.977 10.016 12.344 10.291 20.328h7.414c5.348 0 9.699 4.352 9.699 9.699s-4.352 9.699-9.699 9.699h-11.156c-6.176 0-11.77-2.973-15.248-7.719l-7.799 10.398c-2.646 3.529-3.498 7.994-2.336 12.248l4.18 15.33c1.584 5.805.846 11.898-2.076 17.156l-10.508 18.912c-.658 1.184-1.871 1.955-3.223 2.047-.091.007-.182.011-.272.011zm-11.397-64.986c.523 0 1.045.102 1.539.309 1.033.43 1.838 1.273 2.221 2.324l11.396 31.342c.41 1.133.291 2.389-.328 3.422l-1.217 2.031c-2.385 3.975-3.027 8.598-1.979 12.898l6.775-12.195c1.9-3.422 2.381-7.387 1.35-11.164l-4.18-15.33c-1.816-6.652-.484-13.635 3.656-19.154l11.758-15.678c.924-1.23 2.471-1.818 3.982-1.521 1.51.301 2.713 1.443 3.094 2.936 1.246 4.988 5.598 8.385 10.611 8.385h11.156c.938 0 1.699-.762 1.699-1.699s-.762-1.699-1.699-1.699h-11.398c-2.209 0-4-1.791-4-4v-3.047c0-5.887-2.648-11.355-7.266-15.004l-7.707-6.088c-3.359-2.654-7.568-4.117-11.854-4.117h-7.568c-6.988 0-13.539 3.102-17.971 8.506l-5.889 7.186c-.422.514-.385 1.256.086 1.727.498.5 1.312.498 1.818-.002l9.084-9.084c.75-.75 1.768-1.172 2.828-1.172h11.396c1.545 0 2.953.891 3.615 2.287s.459 3.049-.52 4.246l-20.699 25.304c-3.641 4.445-8.352 7.99-13.629 10.252l-12.775 5.475c-1.008.434-2.145.434-3.152 0l-10.008-4.289c-3.904-1.674-8.061-2.428-12.244-2.494l13.943 10.141c4.619 3.359 10.713 3.959 15.898 1.566l26.502-12.23c.532-.247 1.104-.37 1.676-.37z" fill="#4c241d"/></g><g fill="#4c241d"><circle cx="250.365" cy="42.927" r="4.276"/><path d="m161.359 54c-2.209 0-4-1.791-4-4v-8c0-2.209 1.791-4 4-4s4 1.791 4 4v8c0 2.209-1.791 4-4 4z"/><path d="m161.359 78c-2.209 0-4-1.791-4-4v-8c0-2.209 1.791-4 4-4s4 1.791 4 4v8c0 2.209-1.791 4-4 4z"/><path d="m153.359 62h-8c-2.209 0-4-1.791-4-4s1.791-4 4-4h8c2.209 0 4 1.791 4 4s-1.791 4-4 4z"/><path d="m177.359 62h-8c-2.209 0-4-1.791-4-4s1.791-4 4-4h8c2.209 0 4 1.791 4 4s-1.791 4-4 4z"/></g><g><circle cx="226.4" cy="100.64" fill="#fff" r="15.671"/><path d="m226.4 120.311c-10.848 0-19.672-8.824-19.672-19.67 0-10.848 8.824-19.672 19.672-19.672s19.672 8.824 19.672 19.672c0 10.845-8.824 19.67-19.672 19.67zm0-31.342c-6.436 0-11.672 5.236-11.672 11.672s5.236 11.67 11.672 11.67 11.672-5.234 11.672-11.67-5.236-11.672-11.672-11.672z" fill="#4c241d"/></g><g><path d="m121.053 103.709c0 12.832-12.751 23.234-28.48 23.234s-28.48-10.402-28.48-23.234c0-5.49 2.334-10.535 6.236-14.511 1.97-2.007 3.383-4.558 3.542-7.367.171-3.019-.783-6.602-5.281-8.851 0 0 2.998-10.493 14.989-2.998 0 0-.239-.43-.555-1.197-4.479-10.87 3.738-22.785 15.497-22.785h6.044s-13.534 9.046-4.497 16.488c25.482 20.986 20.985 41.221 20.985 41.221z" fill="#ffce56"/><path d="m92.574 130.943c-17.91 0-32.48-12.217-32.48-27.234 0-6.314 2.621-12.463 7.383-17.312 1.457-1.484 2.311-3.188 2.4-4.789.137-2.395-.783-3.902-3.076-5.049-1.721-.861-2.586-2.826-2.057-4.678.168-.592 1.803-5.84 7.062-7.861 1.865-.719 3.873-.91 6.01-.596-.174-4.256.998-8.533 3.453-12.199 3.867-5.776 10.317-9.225 17.252-9.225h6.043c1.762 0 3.316 1.152 3.828 2.838s-.141 3.508-1.605 4.488c-1.842 1.244-5.701 4.682-5.826 7.324-.018.365-.062 1.34 1.65 2.75 25.201 20.752 23.023 41.223 22.438 44.691-.247 14.843-14.719 26.852-32.475 26.852zm-18.594-59.064c2.758 2.592 4.117 6.094 3.885 10.18-.203 3.59-1.82 7.029-4.68 9.943-3.332 3.391-5.092 7.439-5.092 11.707 0 10.605 10.982 19.234 24.48 19.234s24.479-8.629 24.479-19.234c0-.283.029-.564.09-.842.166-.822 3.371-18.361-19.617-37.291-3.984-3.281-4.676-6.885-4.555-9.33.104-2.053.807-3.969 1.789-5.68-2.76.854-5.186 2.633-6.842 5.107-2.35 3.508-2.783 7.732-1.193 11.59.182.443.322.721.361.793.861 1.598.547 3.588-.777 4.83-1.322 1.244-3.309 1.449-4.848.488-2.873-1.795-5.277-2.463-6.785-1.889-.255.101-.486.236-.695.394z" fill="#4c241d"/></g><g><path d="m76.241 111.357c-.13 1.063-.208 2.137-.102 3.202.688 6.933 7.783 12.384 16.434 12.384 9.106 0 14.989-5.996 16.488-13.49 1.499-7.495-1.499-22.484-16.488-32.977 0 0 5.624 13.168-5.996 16.488-7.909 2.26-9.856 10.481-10.336 14.393z" fill="#fc8c29"/><path d="m92.574 130.943c-10.734 0-19.51-6.875-20.414-15.99-.156-1.545-.021-2.996.111-4.084 1.127-9.205 5.941-15.674 13.207-17.75 1.969-.562 3.236-1.488 3.875-2.83 1.316-2.768.08-6.982-.457-8.242-.703-1.643-.23-3.551 1.156-4.676 1.391-1.125 3.355-1.193 4.814-.172 17.709 12.396 19.594 29.648 18.117 37.037-2.03 10.151-10.042 16.707-20.409 16.707zm5.082-40.55c-.213 1.117-.559 2.242-1.08 3.336-1.143 2.396-3.611 5.572-8.898 7.082-5.514 1.576-7.043 7.588-7.465 11.033v.002c-.084.676-.17 1.549-.092 2.311.488 4.932 5.959 8.787 12.453 8.787 7.748 0 11.572-5.309 12.566-10.275 1.014-5.079-.504-14.13-7.484-22.276zm-21.414 20.964h.039z" fill="#4c241d"/></g></g></svg>